<?xml version="1.0" encoding="UTF-8" standalone="no"?>
<svg width="61px" height="60px" viewBox="0 0 61 60" version="1.1" xmlns="http://www.w3.org/2000/svg" xmlns:xlink="http://www.w3.org/1999/xlink">
    <!-- Generator: sketchtool 49.3 (51167) - http://www.bohemiancoding.com/sketch -->
    <title>0196F096-A106-45D6-B3E0-9DF35C142049</title>
    <desc>Created with sketchtool.</desc>
    <defs></defs>
    <g id="Page-1" stroke="none" stroke-width="1" fill="none" fill-rule="evenodd" stroke-linecap="round" stroke-linejoin="round">
        <g id="solyd_courses_details" transform="translate(-934.000000, -917.000000)" stroke="#00DCB3" stroke-width="2">
            <g id="award-74" transform="translate(935.000000, 918.000000)">
                <polyline id="Shape" points="43 11 26 0 9 11"></polyline>
                <polyline id="Shape" points="30.3809524 44 5 44 5 16 46 16"></polyline>
                <path d="M35,50 L2,50 C0.8954305,50 1.3527075e-16,49.1045695 0,48 L0,13 C-1.3527075e-16,11.8954305 0.8954305,11 2,11 L52,11 C53.1045695,11 54,11.8954305 54,13 L54,16.85" id="Shape"></path>
                <path d="M14,26 L29,26" id="Shape"></path>
                <path d="M14,35 L25,35" id="Shape"></path>
                <polygon id="Star" points="47.5 39.1249472 43.0916106 40.5676275 43.1014138 35.9291873 40.3670761 32.1823725 44.7815242 30.7583391 47.5 27 50.2184758 30.7583391 54.6329239 32.1823725 51.8985862 35.9291873 51.9083894 40.5676275"></polygon>
                <polyline id="Shape" points="54 44 54 58 47 54.0710026 40 58 40 44"></polyline>
                <ellipse id="Oval-Copy" cx="47" cy="34.5" rx="12" ry="11.5"></ellipse>
            </g>
        </g>
    </g>
</svg>