<svg height="48px" viewBox="0 0 510 512" width="48px" xmlns="http://www.w3.org/2000/svg" xmlns:xlink="http://www.w3.org/1999/xlink"><linearGradient id="linear-gradient" gradientUnits="userSpaceOnUse" x1="11.385" x2="496.244" y1="500.615" y2="15.756"><stop offset="0" stop-color="#6AE6C6"/><stop offset=".518" stop-color="#6AE6C6"/><stop offset="1" stop-color="#6AE6C6"/></linearGradient><linearGradient id="linear-gradient-3" x1="-.615" x2="484.244" xlink:href="#linear-gradient" y1="488.615" y2="3.756"/><linearGradient id="linear-gradient-4" x1="-62.615" x2="422.244" xlink:href="#linear-gradient" y1="426.615" y2="-58.244"/><g id="Clock"><path d="m431.362 80.638a248 248 0 1 0 -350.724 350.724 248 248 0 1 0 350.724-350.724zm-11.313 339.411a232 232 0 0 1 -328.1-328.1 232 232 0 0 1 328.1 328.1z" fill="url(#linear-gradient)"/><path d="m256 48c-114.691 0-208 93.309-208 208s93.309 208 208 208 208-93.309 208-208-93.309-208-208-208zm141.233 337.92-11.126-11.126a8 8 0 0 0 -11.313 11.313l11.126 11.126a191.264 191.264 0 0 1 -121.92 50.588v-15.821a8 8 0 0 0 -16 0v15.821a191.264 191.264 0 0 1 -121.92-50.588l11.126-11.126a8 8 0 0 0 -11.313-11.313l-11.126 11.126a191.264 191.264 0 0 1 -50.588-121.92h15.821a8 8 0 0 0 0-16h-15.821a191.264 191.264 0 0 1 50.588-121.92l11.126 11.126a8 8 0 0 0 11.313-11.313l-11.126-11.126a191.264 191.264 0 0 1 121.92-50.588v15.821a8 8 0 0 0 16 0v-15.821a191.264 191.264 0 0 1 121.92 50.588l-11.126 11.126a8 8 0 1 0 11.313 11.313l11.126-11.126a191.264 191.264 0 0 1 50.588 121.92h-15.821a8 8 0 0 0 0 16h15.821a191.264 191.264 0 0 1 -50.588 121.92z" fill="url(#linear-gradient)"/><path d="m336 248h-49.013a32.115 32.115 0 0 0 -22.987-22.987v-97.013a8 8 0 0 0 -16 0v97.013a32 32 0 1 0 38.987 38.987h49.013a8 8 0 0 0 0-16zm-80 24a16 16 0 1 1 16-16 16.019 16.019 0 0 1 -16 16z" fill="url(#linear-gradient-3)"/><path d="m112 248h-8a8 8 0 0 0 0 16h8a8 8 0 0 0 0-16z" fill="url(#linear-gradient-4)"/></g></svg>