<svg xmlns="http://www.w3.org/2000/svg" xmlns:xlink="http://www.w3.org/1999/xlink" viewBox="0 0 664 149"><defs><style>.a{fill:url(#a);}.b{fill:url(#b);}.c{fill:url(#c);}.d{fill:url(#d);}.e{fill:url(#e);}.f{fill:url(#f);}.g{fill:none;clip-rule:evenodd;}.h{fill:#fff;}.i{clip-path:url(#g);}.j{fill:url(#h);}.k{mask:url(#i);}.l{fill:#ffa2fc;}.l,.o,.t,.v{fill-rule:evenodd;}.m{mask:url(#j);}.n{mask:url(#k);}.o{fill:#421389;}.p{mask:url(#l);}.q{clip-path:url(#m);}.r{fill:url(#n);}.s{mask:url(#o);}.t{fill:#da3281;}.u{mask:url(#p);}.v{fill:#fffc40;}</style><linearGradient id="a" x1="17881.99" y1="-1121.55" x2="18009.25" y2="-1088.9" gradientTransform="translate(-1030.69 -17933.8) rotate(90)" gradientUnits="userSpaceOnUse"><stop offset="0" stop-color="#fff"/><stop offset="1"/></linearGradient><linearGradient id="b" x1="17869.97" y1="-1098.25" x2="18022.59" y2="-1043.23" gradientTransform="translate(-991 -17937.27) rotate(90)" xlink:href="#a"/><linearGradient id="c" x1="17306.27" y1="-1470.63" x2="17245.66" y2="-1648.52" gradientTransform="translate(-1507.29 -17171.55) rotate(90)" xlink:href="#a"/><linearGradient id="d" x1="17224.71" y1="-1408.32" x2="17145.36" y2="-1666.33" gradientTransform="translate(-1519.7 -17089.11) rotate(90)" xlink:href="#a"/><linearGradient id="e" x1="17632.71" y1="-1562.36" x2="17587.91" y2="-1484.75" gradientTransform="translate(-1464.34 -17502.11) rotate(90)" xlink:href="#a"/><linearGradient id="f" x1="17732.41" y1="-1753.79" x2="17768.35" y2="-1816.03" gradientTransform="translate(-1766.08 -17638.83) rotate(90)" xlink:href="#a"/><clipPath id="g"><path class="g" d="M130.75,3.23c7.42,37.85-25.55,84.24-37.45,133.08L73,97.23l20-48.52L48.87,77.2,6.74,64.34c45.85-20.62,85.45-61.5,124-61.11"/></clipPath><linearGradient id="h" x1="117.68" y1="144.81" x2="6.7" y2="-14.16" gradientTransform="translate(118.24 12.94) rotate(90)" gradientUnits="userSpaceOnUse"><stop offset="0" stop-color="#004ce2"/><stop offset="0.51" stop-color="#a734f3"/><stop offset="1" stop-color="#ff63f6"/></linearGradient><mask id="i" x="6.11" y="-15.7" width="124.64" height="102.66" maskUnits="userSpaceOnUse"><rect class="a" x="25.95" y="-20.31" width="84.95" height="111.88" transform="matrix(0.17, -0.99, 0.99, 0.17, 21.73, 97.04)"/></mask><mask id="j" x="6.74" y="-15.7" width="127.89" height="99.64" maskUnits="userSpaceOnUse"><rect class="b" x="30.08" y="-23.79" width="81.21" height="115.82" transform="translate(25.09 98.01) rotate(-80.26)"/></mask><mask id="k" x="67.03" y="39.49" width="58.97" height="99.72" maskUnits="userSpaceOnUse"><rect class="c" x="49.68" y="67.47" width="93.66" height="43.75" transform="translate(-7.88 169.35) rotate(-80.26)"/></mask><mask id="l" x="77.23" y="-1.96" width="57.57" height="141.4" maskUnits="userSpaceOnUse"><rect class="d" x="37.27" y="51.34" width="137.5" height="34.81" transform="translate(20.33 161.6) rotate(-80.26)"/></mask><clipPath id="m"><path class="g" d="M34.89,138.34l12.37-18.49-35.08,26L31.32,106.6,15.4,122.13c16.18-82,97.12-14.65,19.49,16.21"/></clipPath><linearGradient id="n" x1="64.24" y1="64.26" x2="17.19" y2="145.75" gradientTransform="translate(152.04 48.76) rotate(90)" gradientUnits="userSpaceOnUse"><stop offset="0" stop-color="#ff3f82"/><stop offset="1" stop-color="#fddf57"/></linearGradient><mask id="o" x="31.82" y="81.68" width="37" height="42.79" maskUnits="userSpaceOnUse"><rect class="e" x="31.28" y="87.57" width="38.09" height="31" transform="translate(-59.78 135.22) rotate(-80.26)"/></mask><mask id="p" x="11.36" y="92.04" width="53.46" height="61.24" maskUnits="userSpaceOnUse"><rect class="f" x="10.88" y="100.22" width="54.43" height="44.9" transform="translate(-89.25 139.44) rotate(-80.26)"/></mask></defs><title>eadguru-6-white</title><path class="h" d="M187.83,115.45a35.81,35.81,0,0,1-17.68-4.26,31,31,0,0,1-12.07-12.08,36.64,36.64,0,0,1-4.4-18.34q0-11.2,4.33-19.08a31.72,31.72,0,0,1,11.21-12.07,27.54,27.54,0,0,1,14.6-4.2,34,34,0,0,1,10.94,1.8,26.92,26.92,0,0,1,9.54,5.6,28.78,28.78,0,0,1,6.8,9.48A35.08,35.08,0,0,1,214,75.83a2.8,2.8,0,0,1-.8,1.94,2.47,2.47,0,0,1-1.87.87H156.88l-.8-5.07h53.76l-1.34,1.2v-2.4A21.94,21.94,0,0,0,204,60.49a24.91,24.91,0,0,0-9.13-7.27,26.18,26.18,0,0,0-11.08-2.46,22.19,22.19,0,0,0-8.4,1.8A25.21,25.21,0,0,0,167.28,58a27.7,27.7,0,0,0-6.07,9.27,33.89,33.89,0,0,0-2.33,13.07,34,34,0,0,0,3.27,14.94,26.23,26.23,0,0,0,9.74,10.94q6.47,4.14,15.94,4.13a23.65,23.65,0,0,0,8.53-1.53,27.23,27.23,0,0,0,7.21-4.07,24.91,24.91,0,0,0,5.2-5.47,3.05,3.05,0,0,1,2.27-1.2,2.1,2.1,0,0,1,1.6.74,2.54,2.54,0,0,1,.13,3.26,39.59,39.59,0,0,1-10.6,9.34A26.73,26.73,0,0,1,187.83,115.45Z"/><path class="h" d="M286.54,47.55a2.48,2.48,0,0,1,1.93.81,2.66,2.66,0,0,1,.74,1.86v61.23a2.69,2.69,0,0,1-4.61,1.87,2.65,2.65,0,0,1-.73-1.87V92.51L286,90.77a19.84,19.84,0,0,1-2.13,8.68,28.12,28.12,0,0,1-5.87,8,29.41,29.41,0,0,1-8.8,5.8,27.17,27.17,0,0,1-10.94,2.2,28.09,28.09,0,0,1-15.94-4.66,32.24,32.24,0,0,1-11-12.68,39.67,39.67,0,0,1-4-18,38.17,38.17,0,0,1,4.07-17.94,31.48,31.48,0,0,1,11.07-12.27,28.76,28.76,0,0,1,15.81-4.47,28.29,28.29,0,0,1,10.8,2.07,27.11,27.11,0,0,1,8.87,5.8A26.77,26.77,0,0,1,283.87,62,27.45,27.45,0,0,1,286,72.9l-2.13-3.33V50.22a2.65,2.65,0,0,1,.73-1.86A2.5,2.5,0,0,1,286.54,47.55Zm-28,62.83a23.42,23.42,0,0,0,13.34-3.93,26.69,26.69,0,0,0,9.21-10.81A35.15,35.15,0,0,0,284.4,80.1a33.38,33.38,0,0,0-3.33-15,27,27,0,0,0-9.21-10.68,23.42,23.42,0,0,0-13.34-3.93,23.78,23.78,0,0,0-13.2,3.8,26.51,26.51,0,0,0-9.27,10.47,33.29,33.29,0,0,0-3.4,15.34A35.15,35.15,0,0,0,236,95.64a26.67,26.67,0,0,0,9.2,10.81A23.44,23.44,0,0,0,258.52,110.38Z"/><path class="h" d="M365.91,15.41a2.47,2.47,0,0,1,1.93.8,2.65,2.65,0,0,1,.73,1.86v93.38a2.52,2.52,0,0,1-.8,1.87,2.55,2.55,0,0,1-1.86.8,2.53,2.53,0,0,1-1.94-.8,2.65,2.65,0,0,1-.73-1.87V92.51l2.13-2.94a22.27,22.27,0,0,1-2.06,9.14,28.36,28.36,0,0,1-5.87,8.41,29.73,29.73,0,0,1-8.88,6.07,26.47,26.47,0,0,1-10.93,2.26,28.14,28.14,0,0,1-15.81-4.6,32.28,32.28,0,0,1-11.07-12.54,38.66,38.66,0,0,1-4.07-17.94,38.66,38.66,0,0,1,4.07-17.94A31.72,31.72,0,0,1,321.82,50a28.41,28.41,0,0,1,15.81-4.54,27.15,27.15,0,0,1,10.47,2.07A28.16,28.16,0,0,1,363.1,62a25.88,25.88,0,0,1,2.27,10.87l-2.13-3.33V18.07a2.65,2.65,0,0,1,.73-1.86A2.49,2.49,0,0,1,365.91,15.41Zm-28,95a23.6,23.6,0,0,0,13.41-3.86,26.59,26.59,0,0,0,9.14-10.68,34.72,34.72,0,0,0,3.33-15.47A34.33,34.33,0,0,0,360.44,65a26.46,26.46,0,0,0-9.21-10.6,23.68,23.68,0,0,0-13.34-3.87,23.44,23.44,0,0,0-13.2,3.87A26.83,26.83,0,0,0,315.42,65,33.7,33.7,0,0,0,312,80.37a33.79,33.79,0,0,0,3.41,15.34,27.18,27.18,0,0,0,9.27,10.74A23.18,23.18,0,0,0,337.89,110.38Z"/><path class="h" d="M417.8,43.42a29.19,29.19,0,0,1,10.67,1.93,30.77,30.77,0,0,1,8.6,5,27,27,0,0,1,5.74,6.4A12,12,0,0,1,444.88,63l-2.54-1.6V49.82a5.28,5.28,0,0,1,1.47-3.8,5.65,5.65,0,0,1,7.73,0,5.28,5.28,0,0,1,1.47,3.8v58.43q0,10.94-4.6,18.21a28.13,28.13,0,0,1-12.34,10.8,40.88,40.88,0,0,1-17.21,3.54,44.19,44.19,0,0,1-8.87-1,47.79,47.79,0,0,1-8.6-2.54q-3.74-1.53-4.67-3.13a6.6,6.6,0,0,1-2.54-3.07,3.52,3.52,0,0,1,.54-3.2,3.59,3.59,0,0,1,3.13-1.87,13.51,13.51,0,0,1,4.87,1.2c.8.27,2.07.71,3.8,1.34a49.76,49.76,0,0,0,5.94,1.66,30.3,30.3,0,0,0,6.54.74q11.21,0,17.27-5.94t6.07-15.67V96.91l1.47.67a17.36,17.36,0,0,1-3.27,6.94,27.62,27.62,0,0,1-5.94,5.66,29.21,29.21,0,0,1-16.54,5.27,31.09,31.09,0,0,1-16.81-4.66A33.24,33.24,0,0,1,389.45,98a38.82,38.82,0,0,1-4.34-18.54,39.14,39.14,0,0,1,4.34-18.68A32.85,32.85,0,0,1,401.19,48,30.78,30.78,0,0,1,417.8,43.42Zm1.46,9.87A22.32,22.32,0,0,0,407,56.69a23.69,23.69,0,0,0-8.4,9.34,28.73,28.73,0,0,0-3.07,13.41,28.42,28.42,0,0,0,3.07,13.27,24.14,24.14,0,0,0,8.4,9.4,23.4,23.4,0,0,0,24.41.07,23.93,23.93,0,0,0,8.41-9.27,28.7,28.7,0,0,0,3.06-13.47,29.1,29.1,0,0,0-3.06-13.54,23.25,23.25,0,0,0-8.41-9.27A22.37,22.37,0,0,0,419.26,53.29Z"/><path class="h" d="M523.31,45.15a5.13,5.13,0,0,1,3.87,1.54,5.44,5.44,0,0,1,1.47,3.93V86.91q0,13.47-7.54,20.87t-21,7.41q-13.34,0-20.88-7.41t-7.53-20.87V50.62a5.32,5.32,0,0,1,1.53-3.93,5.54,5.54,0,0,1,7.67,0,5.44,5.44,0,0,1,1.47,3.93V86.91q0,9.07,4.67,13.74t13.07,4.67q8.53,0,13.21-4.67T518,86.91V50.62a5.43,5.43,0,0,1,1.46-3.93A5.13,5.13,0,0,1,523.31,45.15Z"/><path class="h" d="M553.73,114.12a5.06,5.06,0,0,1-3.81-1.6,5.41,5.41,0,0,1-1.53-3.87v-58a5.32,5.32,0,0,1,1.53-3.93,5.2,5.2,0,0,1,3.81-1.54,5.11,5.11,0,0,1,3.86,1.54,5.44,5.44,0,0,1,1.47,3.93V68.1l-1.6-2.8a29,29,0,0,1,2.87-8.07,28,28,0,0,1,5.27-7.07,24.22,24.22,0,0,1,7.33-4.94,22.51,22.51,0,0,1,9.08-1.8,10.82,10.82,0,0,1,5.4,1.4,4.35,4.35,0,0,1,2.47,3.94,5.56,5.56,0,0,1-1.47,4.2,4.72,4.72,0,0,1-3.34,1.4,7.42,7.42,0,0,1-3.33-.8,8.83,8.83,0,0,0-4-.8,13.23,13.23,0,0,0-6.61,1.86,22.28,22.28,0,0,0-6,5.14,27.21,27.21,0,0,0-4.4,7.47,24.2,24.2,0,0,0-1.67,9v32.42a5.41,5.41,0,0,1-1.53,3.87A5.05,5.05,0,0,1,553.73,114.12Z"/><path class="h" d="M653.5,45.15a5.13,5.13,0,0,1,3.87,1.54,5.44,5.44,0,0,1,1.47,3.93V86.91q0,13.47-7.54,20.87t-21,7.41q-13.34,0-20.87-7.41t-7.54-20.87V50.62a5.32,5.32,0,0,1,1.53-3.93,5.17,5.17,0,0,1,3.8-1.54,5.11,5.11,0,0,1,3.87,1.54,5.44,5.44,0,0,1,1.47,3.93V86.91q0,9.07,4.67,13.74t13.07,4.67q8.54,0,13.21-4.67t4.67-13.74V50.62a5.47,5.47,0,0,1,1.46-3.93A5.13,5.13,0,0,1,653.5,45.15Z"/><g class="i"><rect class="j" x="1.99" y="-0.11" width="137.5" height="125.6" transform="translate(-3.01 121.79) rotate(-80.26)"/></g><g class="k"><path class="l" d="M35.14,73,6.74,64.34c45.85-20.62,85.45-61.5,124-61.11C84.82,12.68,35.14,73,35.14,73"/></g><g class="m"><path class="l" d="M130.75,3.23a65.4,65.4,0,0,1,.62,19.66C90.93,30.33,49.8,57.2,6.74,64.34c45.85-20.62,85.45-61.5,124-61.11"/></g><g class="n"><path class="o" d="M126,46.89c-8.74,27.72-25.06,58.07-32.7,89.42L73,97.23s31.26-20,53-50.34"/></g><g class="p"><path class="o" d="M130.75,3.23c7.42,37.85-25.55,84.24-37.45,133.08l-12.44-23.9C126.23,48.79,130.75,3.23,130.75,3.23"/></g><g class="q"><rect class="r" x="12.69" y="54.02" width="107.41" height="93.24" transform="translate(-44.03 149.05) rotate(-80.26)"/></g><g class="s"><path class="t" d="M47.82,116.66l6.51-10.32L34,119.59l9.32-22.41-9,8.29c4.42-48.51,60.35-2,13.46,11.19"/></g><g class="u"><path class="v" d="M12.18,145.83l35.08-26L34.89,138.34c12.6-5,21-11,26.22-17.11a76.61,76.61,0,0,1-20,10.63l11-16.59c-1.31.5-2.73,1-4.26,1.39l.15-.23L26.16,129l8.4-23.73-.2.18c.14-1.58.34-3.06.59-4.44L20.64,114.84a76.58,76.58,0,0,1,6.8-21.61c-5.08,6.23-9.41,15.6-12,28.9L31.32,106.6Z"/></g></svg>