<?xml version="1.0" encoding="UTF-8" standalone="no"?>
<svg width="50px" height="55px" viewBox="0 0 50 55" version="1.1" xmlns="http://www.w3.org/2000/svg" xmlns:xlink="http://www.w3.org/1999/xlink">
    <!-- Generator: sketchtool 49.3 (51167) - http://www.bohemiancoding.com/sketch -->
    <title>487374F1-185D-4BEF-812D-72AAC0374309</title>
    <desc>Created with sketchtool.</desc>
    <defs></defs>
    <g id="Page-1" stroke="none" stroke-width="1" fill="none" fill-rule="evenodd">
        <g id="solyd_courses_details" transform="translate(-939.000000, -804.000000)" stroke="#00DCB3" stroke-width="2">
            <g id="event-confirm" transform="translate(940.000000, 805.000000)">
                <path d="M48,12 L0,12" id="Shape" stroke-linecap="round" stroke-linejoin="round"></path>
                <rect id="Rectangle-36-Copy" x="5" y="21" width="6" height="6" rx="2"></rect>
                <rect id="Rectangle-36-Copy" x="5" y="33" width="6" height="6" rx="2"></rect>
                <rect id="Rectangle-36-Copy" x="15" y="21" width="6" height="6" rx="2"></rect>
                <rect id="Rectangle-36-Copy" x="15" y="33" width="6" height="6" rx="2"></rect>
                <rect id="Rectangle-36-Copy" x="27" y="21" width="6" height="6" rx="2"></rect>
                <rect id="Rectangle-36-Copy" x="38" y="21" width="6" height="6" rx="2"></rect>
                <path d="M19.4285714,46 L1,46 C0.44771525,46 6.76353751e-17,45.5522847 0,45 L0,6 C-6.76353751e-17,5.44771525 0.44771525,5 1,5 L47,5 C47.5522847,5 48,5.44771525 48,6 L48,26.6388889" id="Shape" stroke-linecap="round" stroke-linejoin="round"></path>
                <path d="M11,0 L11,7" id="Shape" stroke-linecap="round" stroke-linejoin="round"></path>
                <path d="M37,0 L37,7" id="Shape" stroke-linecap="round" stroke-linejoin="round"></path>
                <polyline id="Shape" stroke-linecap="round" stroke-linejoin="round" points="34 42.5 36.3333333 45 41 40"></polyline>
                <circle id="Oval-Copy-2" stroke-linecap="round" stroke-linejoin="round" cx="38" cy="43" r="10"></circle>
            </g>
        </g>
    </g>
</svg>