<?xml version="1.0" encoding="UTF-8" standalone="no"?>
<svg width="42px" height="47px" viewBox="0 0 42 47" version="1.1" xmlns="http://www.w3.org/2000/svg" xmlns:xlink="http://www.w3.org/1999/xlink">
    <!-- Generator: sketchtool 49.3 (51167) - http://www.bohemiancoding.com/sketch -->
    <title>43C96F32-02AF-4E54-9967-C8DAAD4DB62F</title>
    <desc>Created with sketchtool.</desc>
    <defs></defs>
    <g id="Page-1" stroke="none" stroke-width="1" fill="none" fill-rule="evenodd">
        <g id="solyd_courses_details" transform="translate(-455.000000, -1039.000000)" stroke="#00DCB3" stroke-width="2">
            <g id="microscope" transform="translate(456.000000, 1039.000000)">
                <path d="M8.63894737,10.465 L16.1589474,6.70240909" id="Shape"></path>
                <path d="M8.64421053,10.4754545 C3.48736842,13.3347727 0,18.8087727 0,25.0909091 L0,39.7272727" id="Shape"></path>
                <path d="M0,39.7272727 L38,39.7272727 C39.1045695,39.7272727 40,40.6227032 40,41.7272727 L40,44 C40,45.1045695 39.1045695,46 38,46 L0,46 L0,39.7272727 Z" id="Rectangle-path" stroke-linecap="square"></path>
                <path d="M21.8893315,22.1585627 L17.9611402,24.1621663 C16.9810728,24.6620571 15.7812799,24.2764956 15.2759011,23.2992469 L6.53329748,6.39371223 C6.02590795,5.41257531 6.40995609,4.20588621 7.39109301,3.69849669 C7.39438003,3.69679683 7.39767175,3.69510609 7.40096815,3.6934245 L11.328356,1.68994917 C12.3084063,1.1899969 13.5082349,1.57550528 14.0136591,2.55274478 L22.7570663,19.4581511 C23.2644956,20.4392675 22.8804965,21.6459721 21.8993801,22.1534015 C21.8960355,22.1551313 21.8926859,22.1568517 21.8893315,22.1585627 Z" id="Shape" stroke-linecap="square"></path>
                <path d="M16.8421053,33.4545455 L38.9473684,33.4545455" id="Shape" stroke-linecap="square"></path>
                <path d="M0,27.1818182 C4.65052632,27.1818182 8.42105263,30.9266364 8.42105263,35.5454545 L8.42105263,39.7272727" id="Shape" stroke-linecap="square"></path>
            </g>
        </g>
    </g>
</svg>